<svg width="351" height="291" viewBox="0 0 351 291" fill="none" xmlns="http://www.w3.org/2000/svg">
<rect x="51" y="21" width="250" height="250" rx="26" fill="black"/>
<path d="M155.933 180.56C155.933 175.687 155.083 171.493 153.383 167.98C151.797 164.353 149.757 161.35 147.263 158.97C144.883 156.59 142.277 154.833 139.443 153.7C136.723 152.567 134.287 152 132.133 152V140.1C134.287 140.1 136.723 139.647 139.443 138.74C142.277 137.72 144.883 136.133 147.263 133.98C149.757 131.713 151.797 128.823 153.383 125.31C155.083 121.797 155.933 117.433 155.933 112.22V94.88C155.933 90.8 156.557 87.06 157.803 83.66C159.163 80.26 160.977 77.3133 163.243 74.82C165.623 72.3267 168.4 70.4 171.573 69.04C174.86 67.5667 178.43 66.83 182.283 66.83H206.933V78.73H188.233C181.093 78.73 176.107 80.43 173.273 83.83C170.553 87.23 169.193 92.2733 169.193 98.96V115.45C169.193 120.097 168.343 124.233 166.643 127.86C164.943 131.487 162.903 134.547 160.523 137.04C158.143 139.42 155.707 141.347 153.213 142.82C150.72 144.18 148.68 144.973 147.093 145.2V146.22C148.567 146.447 150.55 147.353 153.043 148.94C155.537 150.413 157.973 152.51 160.353 155.23C162.733 157.837 164.773 160.953 166.473 164.58C168.287 168.207 169.193 172.23 169.193 176.65V192.97C169.193 199.883 170.667 204.983 173.613 208.27C176.56 211.557 181.49 213.2 188.403 213.2H206.933V225.1H182.283C174.35 225.1 167.947 222.72 163.073 217.96C158.313 213.313 155.933 206.4 155.933 197.22V180.56Z" fill="#1EFF00"/>
<path d="M165.933 180.56C165.933 175.687 165.083 171.493 163.383 167.98C161.797 164.353 159.757 161.35 157.263 158.97C154.883 156.59 152.277 154.833 149.443 153.7C146.723 152.567 144.287 152 142.133 152V140.1C144.287 140.1 146.723 139.647 149.443 138.74C152.277 137.72 154.883 136.133 157.263 133.98C159.757 131.713 161.797 128.823 163.383 125.31C165.083 121.797 165.933 117.433 165.933 112.22V94.88C165.933 90.8 166.557 87.06 167.803 83.66C169.163 80.26 170.977 77.3133 173.243 74.82C175.623 72.3267 178.4 70.4 181.573 69.04C184.86 67.5667 188.43 66.83 192.283 66.83H216.933V78.73H198.233C191.093 78.73 186.107 80.43 183.273 83.83C180.553 87.23 179.193 92.2733 179.193 98.96V115.45C179.193 120.097 178.343 124.233 176.643 127.86C174.943 131.487 172.903 134.547 170.523 137.04C168.143 139.42 165.707 141.347 163.213 142.82C160.72 144.18 158.68 144.973 157.093 145.2V146.22C158.567 146.447 160.55 147.353 163.043 148.94C165.537 150.413 167.973 152.51 170.353 155.23C172.733 157.837 174.773 160.953 176.473 164.58C178.287 168.207 179.193 172.23 179.193 176.65V192.97C179.193 199.883 180.667 204.983 183.613 208.27C186.56 211.557 191.49 213.2 198.403 213.2H216.933V225.1H192.283C184.35 225.1 177.947 222.72 173.073 217.96C168.313 213.313 165.933 206.4 165.933 197.22V180.56Z" fill="#1EFF00"/>
<path d="M175.933 180.56C175.933 175.687 175.083 171.493 173.383 167.98C171.797 164.353 169.757 161.35 167.263 158.97C164.883 156.59 162.277 154.833 159.443 153.7C156.723 152.567 154.287 152 152.133 152V140.1C154.287 140.1 156.723 139.647 159.443 138.74C162.277 137.72 164.883 136.133 167.263 133.98C169.757 131.713 171.797 128.823 173.383 125.31C175.083 121.797 175.933 117.433 175.933 112.22V94.88C175.933 90.8 176.557 87.06 177.803 83.66C179.163 80.26 180.977 77.3133 183.243 74.82C185.623 72.3267 188.4 70.4 191.573 69.04C194.86 67.5667 198.43 66.83 202.283 66.83H226.933V78.73H208.233C201.093 78.73 196.107 80.43 193.273 83.83C190.553 87.23 189.193 92.2733 189.193 98.96V115.45C189.193 120.097 188.343 124.233 186.643 127.86C184.943 131.487 182.903 134.547 180.523 137.04C178.143 139.42 175.707 141.347 173.213 142.82C170.72 144.18 168.68 144.973 167.093 145.2V146.22C168.567 146.447 170.55 147.353 173.043 148.94C175.537 150.413 177.973 152.51 180.353 155.23C182.733 157.837 184.773 160.953 186.473 164.58C188.287 168.207 189.193 172.23 189.193 176.65V192.97C189.193 199.883 190.667 204.983 193.613 208.27C196.56 211.557 201.49 213.2 208.403 213.2H226.933V225.1H202.283C194.35 225.1 187.947 222.72 183.073 217.96C178.313 213.313 175.933 206.4 175.933 197.22V180.56Z" fill="#1EFF00"/>
<path d="M185.933 180.56C185.933 175.687 185.083 171.493 183.383 167.98C181.797 164.353 179.757 161.35 177.263 158.97C174.883 156.59 172.277 154.833 169.443 153.7C166.723 152.567 164.287 152 162.133 152V140.1C164.287 140.1 166.723 139.647 169.443 138.74C172.277 137.72 174.883 136.133 177.263 133.98C179.757 131.713 181.797 128.823 183.383 125.31C185.083 121.797 185.933 117.433 185.933 112.22V94.88C185.933 90.8 186.557 87.06 187.803 83.66C189.163 80.26 190.977 77.3133 193.243 74.82C195.623 72.3267 198.4 70.4 201.573 69.04C204.86 67.5667 208.43 66.83 212.283 66.83H236.933V78.73H218.233C211.093 78.73 206.107 80.43 203.273 83.83C200.553 87.23 199.193 92.2733 199.193 98.96V115.45C199.193 120.097 198.343 124.233 196.643 127.86C194.943 131.487 192.903 134.547 190.523 137.04C188.143 139.42 185.707 141.347 183.213 142.82C180.72 144.18 178.68 144.973 177.093 145.2V146.22C178.567 146.447 180.55 147.353 183.043 148.94C185.537 150.413 187.973 152.51 190.353 155.23C192.733 157.837 194.773 160.953 196.473 164.58C198.287 168.207 199.193 172.23 199.193 176.65V192.97C199.193 199.883 200.667 204.983 203.613 208.27C206.56 211.557 211.49 213.2 218.403 213.2H236.933V225.1H212.283C204.35 225.1 197.947 222.72 193.073 217.96C188.313 213.313 185.933 206.4 185.933 197.22V180.56Z" fill="#1EFF00"/>
<path d="M129.933 180.56C129.933 175.687 129.083 171.493 127.383 167.98C125.797 164.353 123.757 161.35 121.263 158.97C118.883 156.59 116.277 154.833 113.443 153.7C110.723 152.567 108.287 152 106.133 152V140.1C108.287 140.1 110.723 139.647 113.443 138.74C116.277 137.72 118.883 136.133 121.263 133.98C123.757 131.713 125.797 128.823 127.383 125.31C129.083 121.797 129.933 117.433 129.933 112.22V94.88C129.933 90.8 130.557 87.06 131.803 83.66C133.163 80.26 134.977 77.3133 137.243 74.82C139.623 72.3267 142.4 70.4 145.573 69.04C148.86 67.5667 152.43 66.83 156.283 66.83H180.933V78.73H162.233C155.093 78.73 150.107 80.43 147.273 83.83C144.553 87.23 143.193 92.2733 143.193 98.96V115.45C143.193 120.097 142.343 124.233 140.643 127.86C138.943 131.487 136.903 134.547 134.523 137.04C132.143 139.42 129.707 141.347 127.213 142.82C124.72 144.18 122.68 144.973 121.093 145.2V146.22C122.567 146.447 124.55 147.353 127.043 148.94C129.537 150.413 131.973 152.51 134.353 155.23C136.733 157.837 138.773 160.953 140.473 164.58C142.287 168.207 143.193 172.23 143.193 176.65V192.97C143.193 199.883 144.667 204.983 147.613 208.27C150.56 211.557 155.49 213.2 162.403 213.2H180.933V225.1H156.283C148.35 225.1 141.947 222.72 137.073 217.96C132.313 213.313 129.933 206.4 129.933 197.22V180.56Z" fill="white"/>
<path d="M139.933 180.56C139.933 175.687 139.083 171.493 137.383 167.98C135.797 164.353 133.757 161.35 131.263 158.97C128.883 156.59 126.277 154.833 123.443 153.7C120.723 152.567 118.287 152 116.133 152V140.1C118.287 140.1 120.723 139.647 123.443 138.74C126.277 137.72 128.883 136.133 131.263 133.98C133.757 131.713 135.797 128.823 137.383 125.31C139.083 121.797 139.933 117.433 139.933 112.22V94.88C139.933 90.8 140.557 87.06 141.803 83.66C143.163 80.26 144.977 77.3133 147.243 74.82C149.623 72.3267 152.4 70.4 155.573 69.04C158.86 67.5667 162.43 66.83 166.283 66.83H190.933V78.73H172.233C165.093 78.73 160.107 80.43 157.273 83.83C154.553 87.23 153.193 92.2733 153.193 98.96V115.45C153.193 120.097 152.343 124.233 150.643 127.86C148.943 131.487 146.903 134.547 144.523 137.04C142.143 139.42 139.707 141.347 137.213 142.82C134.72 144.18 132.68 144.973 131.093 145.2V146.22C132.567 146.447 134.55 147.353 137.043 148.94C139.537 150.413 141.973 152.51 144.353 155.23C146.733 157.837 148.773 160.953 150.473 164.58C152.287 168.207 153.193 172.23 153.193 176.65V192.97C153.193 199.883 154.667 204.983 157.613 208.27C160.56 211.557 165.49 213.2 172.403 213.2H190.933V225.1H166.283C158.35 225.1 151.947 222.72 147.073 217.96C142.313 213.313 139.933 206.4 139.933 197.22V180.56Z" fill="white"/>
<path d="M149.933 180.56C149.933 175.687 149.083 171.493 147.383 167.98C145.797 164.353 143.757 161.35 141.263 158.97C138.883 156.59 136.277 154.833 133.443 153.7C130.723 152.567 128.287 152 126.133 152V140.1C128.287 140.1 130.723 139.647 133.443 138.74C136.277 137.72 138.883 136.133 141.263 133.98C143.757 131.713 145.797 128.823 147.383 125.31C149.083 121.797 149.933 117.433 149.933 112.22V94.88C149.933 90.8 150.557 87.06 151.803 83.66C153.163 80.26 154.977 77.3133 157.243 74.82C159.623 72.3267 162.4 70.4 165.573 69.04C168.86 67.5667 172.43 66.83 176.283 66.83H200.933V78.73H182.233C175.093 78.73 170.107 80.43 167.273 83.83C164.553 87.23 163.193 92.2733 163.193 98.96V115.45C163.193 120.097 162.343 124.233 160.643 127.86C158.943 131.487 156.903 134.547 154.523 137.04C152.143 139.42 149.707 141.347 147.213 142.82C144.72 144.18 142.68 144.973 141.093 145.2V146.22C142.567 146.447 144.55 147.353 147.043 148.94C149.537 150.413 151.973 152.51 154.353 155.23C156.733 157.837 158.773 160.953 160.473 164.58C162.287 168.207 163.193 172.23 163.193 176.65V192.97C163.193 199.883 164.667 204.983 167.613 208.27C170.56 211.557 175.49 213.2 182.403 213.2H200.933V225.1H176.283C168.35 225.1 161.947 222.72 157.073 217.96C152.313 213.313 149.933 206.4 149.933 197.22V180.56Z" fill="white"/>
</svg>
