<svg width="32" height="36" viewBox="0 0 173 197" fill="none" xmlns="http://www.w3.org/2000/svg">
<path d="M84.3 14.1L87.8 11.1L104.8 6.60001L114.3 15.6L114.8 44.6L130.3 55.1L138.3 65.1L155.8 70.1L162.3 76.1L162.8 133.6L157.8 136.6L151.8 154.1L146.3 161.6L142.3 187.1H124.8L121.3 182.1L114.3 181.6L108.3 186.1L57.8 189.1L53.8 176.6L39.3 162.6L27.8 149.1L23.8 147.1L16.8 125.6L6.79999 119.6L8.79999 89.1L13.3 85.1C20.8 83.6 36 80.5 36.8 80.1C37.6 79.7 41.8 72.6 43.8 69.1L49.8 60.6L78.3 51.6L84.3 14.1Z" fill="white"/>
<path d="M159.9 123H172.2V135.3H159.9V123Z" fill="#1EFF00"/>
<path d="M159.9 98.4H172.2V110.7H159.9V98.4Z" fill="#1EFF00"/>
<path d="M159.9 110.7H172.2V123H159.9V110.7Z" fill="#1EFF00"/>
<path d="M159.9 86.1H172.2V98.4H159.9V86.1Z" fill="#1EFF00"/>
<path d="M159.9 73.8H172.2V86.1H159.9V73.8Z" fill="#1EFF00"/>
<path d="M147.6 135.3H159.9V147.6H147.6V135.3Z" fill="#1EFF00"/>
<path d="M147.6 147.6H159.9V159.9H147.6V147.6Z" fill="#1EFF00"/>
<path d="M147.6 61.5H159.9V73.8H147.6V61.5Z" fill="#1EFF00"/>
<path d="M135.3 172.2H147.6V184.5H135.3V172.2Z" fill="#1EFF00"/>
<path d="M135.3 184.5H147.6V196.8H135.3V184.5Z" fill="#1EFF00"/>
<path d="M135.3 159.9H147.6V172.2H135.3V159.9Z" fill="#1EFF00"/>
<path d="M135.3 61.5H147.6V73.8H135.3V61.5Z" fill="#1EFF00"/>
<path d="M135.3 73.8H147.6V86.1H135.3V73.8Z" fill="#1EFF00"/>
<path d="M123 184.5L135.3 184.5V196.8H123V184.5Z" fill="#1EFF00"/>
<path d="M123 135.3H135.3V147.6H123V135.3Z" fill="#1EFF00"/>
<path d="M123 147.6H135.3V159.9H123V147.6Z" fill="#1EFF00"/>
<path d="M123 123H135.3V135.3H123V123Z" fill="#1EFF00"/>
<path d="M123 110.7H135.3V123H123V110.7Z" fill="#1EFF00"/>
<path d="M123 49.2H135.3V61.5L123 61.5V49.2Z" fill="#1EFF00"/>
<path d="M110.7 172.2H123L123 184.5L110.7 184.5V172.2Z" fill="#1EFF00"/>
<path d="M110.7 61.5L123 61.5L123 73.8H110.7V61.5Z" fill="#1EFF00"/>
<path d="M110.7 36.9H123L123 49.2L110.7 49.2V36.9Z" fill="#1EFF00"/>
<path d="M110.7 49.2L123 49.2V61.5L110.7 61.5V49.2Z" fill="#1EFF00"/>
<path d="M110.7 73.8H123V86.1H110.7V73.8Z" fill="#1EFF00"/>
<path d="M110.7 24.6H123V36.9H110.7V24.6Z" fill="#1EFF00"/>
<path d="M110.7 12.3H123V24.6H110.7V12.3Z" fill="#1EFF00"/>
<path d="M98.4 184.5L110.7 184.5L110.7 196.8H98.4V184.5Z" fill="#1EFF00"/>
<path d="M98.4 135.3H110.7V147.6H98.4V135.3Z" fill="#1EFF00"/>
<path d="M98.4 147.6H110.7V159.9H98.4V147.6Z" fill="#1EFF00"/>
<path d="M98.4 123H110.7V135.3H98.4V123Z" fill="#1EFF00"/>
<path d="M98.4 110.7H110.7V123H98.4V110.7Z" fill="#1EFF00"/>
<path d="M98.4 0H110.7L110.7 12.3L98.4 12.3V0Z" fill="#1EFF00"/>
<path d="M86.1 184.5H98.4V196.8H86.1V184.5Z" fill="#1EFF00"/>
<path d="M86.1 0H98.4V12.3H86.1V0Z" fill="#1EFF00"/>
<path d="M73.8 184.5H86.1V196.8H73.8V184.5Z" fill="#1EFF00"/>
<path d="M73.8 135.3H86.1V147.6H73.8V135.3Z" fill="#1EFF00"/>
<path d="M73.8 147.6H86.1V159.9H73.8V147.6Z" fill="#1EFF00"/>
<path d="M73.8 123H86.1V135.3H73.8V123Z" fill="#1EFF00"/>
<path d="M73.8 110.7H86.1V123H73.8V110.7Z" fill="#1EFF00"/>
<path d="M73.8 61.5H86.1V73.8H73.8V61.5Z" fill="#1EFF00"/>
<path d="M73.8 36.9H86.1V49.2H73.8V36.9Z" fill="#1EFF00"/>
<path d="M73.8 49.2H86.1V61.5H73.8V49.2Z" fill="#1EFF00"/>
<path d="M73.8 73.8H86.1V86.1H73.8V73.8Z" fill="#1EFF00"/>
<path d="M73.8 24.6H86.1V36.9H73.8V24.6Z" fill="#1EFF00"/>
<path d="M73.8 12.3L86.1 12.3L86.1 24.6H73.8V12.3Z" fill="#1EFF00"/>
<path d="M61.5 184.5H73.8V196.8H61.5V184.5Z" fill="#1EFF00"/>
<path d="M61.5 49.2L73.8 49.2V61.5L61.5 61.5V49.2Z" fill="#1EFF00"/>
<path d="M49.2 172.2H61.5L61.5 184.5L49.2 184.5V172.2Z" fill="#1EFF00"/>
<path d="M49.2 184.5L61.5 184.5V196.8H49.2V184.5Z" fill="#1EFF00"/>
<path d="M49.2 49.2H61.5V61.5H49.2V49.2Z" fill="#1EFF00"/>
<path d="M36.9 159.9H49.2L49.2 172.2H36.9V159.9Z" fill="#1EFF00"/>
<path d="M36.9 98.4H49.2V110.7H36.9V98.4Z" fill="#1EFF00"/>
<path d="M36.9 61.5L49.2 61.5L49.2 73.8H36.9V61.5Z" fill="#1EFF00"/>
<path d="M36.9 86.1H49.2V98.4H36.9V86.1Z" fill="#1EFF00"/>
<path d="M36.9 73.8H49.2V86.1H36.9V73.8Z" fill="#1EFF00"/>
<path d="M24.6 147.6H36.9L36.9 159.9H24.6V147.6Z" fill="#1EFF00"/>
<path d="M24.6 86.1H36.9V98.4L24.6 98.4V86.1Z" fill="#1EFF00"/>
<path d="M24.6 73.8H36.9V86.1H24.6V73.8Z" fill="#1EFF00"/>
<path d="M12.3 135.3H24.6L24.6 147.6H12.3V135.3Z" fill="#1EFF00"/>
<path d="M12.3 123H24.6V135.3H12.3V123Z" fill="#1EFF00"/>
<path d="M12.3 73.8H24.6V86.1L12.3 86.1V73.8Z" fill="#1EFF00"/>
<path d="M0 98.4H12.3V110.7H0V98.4Z" fill="#1EFF00"/>
<path d="M0 110.7H12.3L12.3 123L0 123V110.7Z" fill="#1EFF00"/>
<path d="M0 86.1L12.3 86.1L12.3 98.4H0V86.1Z" fill="#1EFF00"/>
</svg>
