<svg width="95" height="65" viewBox="0 0 95 65" fill="none" xmlns="http://www.w3.org/2000/svg">
<path d="M90.2002 7.6294e-06H4.80017C2.10033 7.6294e-06 0 2.19984 0 4.80018V59.6002C0 60.4003 0.199867 61.1002 0.5 61.7001L10.6 56.7001C11.0001 56.5002 11.1999 56.1002 11.1999 55.7001V11.5001C11.1999 10.4002 12.1 9.60001 13.1 9.60001L45.5 9.60034C46.5999 9.60034 47.4001 10.5004 47.4001 11.5004V55.3004C47.4001 56.0003 47 56.7005 46.3002 57.0003L31.2002 64.6002H90.0002C92.7 64.6002 94.8003 62.4003 94.8003 59.7001L94.8 4.90008C94.9999 2.20025 92.8 0 90.1998 0L90.2002 7.6294e-06ZM70.0002 44.1V36.9002L58.3002 36.8999V27.6999H70.0002V20.5L84.2002 32.3L70.0002 44.1Z" fill="black"/>
</svg>
