<?xml version="1.0" encoding="UTF-8"?>
<svg width="1200pt" height="1200pt" version="1.1" viewBox="0 0 1200 1200" xmlns="http://www.w3.org/2000/svg">
 <path d="m1080 600c0-265.22-214.78-480-480-480s-480 214.78-480 480 214.78 480 480 480 480-214.78 480-480zm-480 296.39c-24 0-44.391-20.391-44.391-44.391 0-25.219 20.391-44.391 44.391-44.391s44.391 20.391 44.391 44.391-20.391 44.391-44.391 44.391zm72-302.39c-25.219 12-40.781 39.609-40.781 70.781v68.391c0 16.781-13.219 30-30 30s-30-14.391-30-30v-68.391c0-54 30-103.22 75.609-126 48-22.781 72-74.391 58.781-127.22-9.6094-36-38.391-66-74.391-74.391-33.609-9.6094-68.391-2.3906-94.781 18-28.828 21.609-44.438 52.828-44.438 86.438 0 16.781-13.219 30-30 30s-30-13.219-30-30c0-52.781 24-100.78 66-133.22 42-32.391 94.781-42 147.61-28.781 57.609 14.391 103.22 61.219 118.78 118.78 19.219 79.219-18 160.82-92.391 195.61z"/>
</svg>
