<?xml version="1.0" encoding="UTF-8"?>
<svg width="1200pt" height="1200pt" version="1.1" viewBox="0 0 1200 1200" xmlns="http://www.w3.org/2000/svg">
 <path d="m1112.4 212.4h-1024.8c-32.398 0-57.602 26.398-57.602 57.602v657.6c0 9.6016 2.3984 18 6 25.199l121.2-60c4.8008-2.3984 7.1992-7.1992 7.1992-12v-530.4c0-13.199 10.801-22.801 22.801-22.801l388.8 0.003906c13.199 0 22.801 10.801 22.801 22.801v525.6c0 8.3984-4.8008 16.801-13.199 20.398l-181.2 91.199h705.6c32.398 0 57.602-26.398 57.602-58.801l-0.003907-657.6c2.3984-32.398-24-58.801-55.203-58.801zm-242.4 529.2v-86.398l-140.4-0.003906v-110.4h140.4v-86.398l170.4 141.6z"/>
 <path d="m436.8 528c27.602 16.801 62.398 8.3984 79.199-19.199 16.801-27.602 8.3984-62.398-19.199-79.199-27.602-16.801-62.398-8.3984-79.199 19.199-15.602 26.398-7.2031 62.398 19.199 79.199z"/>
 <path d="m506.4 624-38.398-4.8008-16.801-48c-3.6016-9.6016-9.6016-19.199-18-26.398l-26.398-24c-4.8008-4.8008-10.801-8.3984-16.801-10.801l-67.199-30c-7.1992-3.6016-14.398-3.6016-21.602 0l-57.602 25.199c-13.199 6-20.398 21.602-14.398 36 6 13.199 21.602 20.398 36 14.398l46.801-20.398 24 10.801c-18 19.199-42 48-61.199 73.199-10.801 13.199-19.199 34.801-13.199 62.398l-37.199 34.801-79.199-4.8008c-16.801-1.1992-31.199 12-32.398 28.801-1.1992 16.801 12 31.199 28.801 32.398l92.398 6h3.6016c7.1992 0 14.398-3.6016 19.199-8.3984l48-44.398 50.398 43.199-1.1992 80.398c0 16.801 13.199 31.199 30 31.199h1.1992c15.602-1.1992 28.801-14.398 28.801-30l1.1992-94.801c0-9.6016-3.6016-18-10.801-24l-56.398-48 62.398-61.199 12 32.398c3.6016 9.6016 12 16.801 22.801 18l56.398 6h3.6016c13.199 0 24-10.801 25.199-24 1.1992-16.797-9.6016-29.996-24.004-31.195z"/>
</svg>
