<?xml version="1.0" encoding="UTF-8"?>
<svg width="1200pt" height="1200pt" version="1.1" viewBox="0 0 1200 1200" xmlns="http://www.w3.org/2000/svg">
 <path d="m358.29 520.67-98.355 0.76953 0.14844 18.91 9.4531-0.074218 74.102-0.57422 35.02 136.9 98.355-0.76953-0.14844-18.906-83.555 0.65625-35.02-136.9zm483.43 0-35.02 136.9-83.555-0.65625-0.14844 18.906 98.355 0.76953 35.02-136.9 74.102 0.57422 9.4531 0.074219 0.14844-18.91-98.355-0.76953zm-241.53 10.492-17.988 5.8398 2.9219 8.9961c3.2266 9.9375 4.4688 20.23 5.6406 31.195l1.0039 9.4023 18.805-2.0078-1.0039-9.4023c-1.1836-11.082-2.5-22.836-6.457-35.027l-2.9219-8.9922zm-94.449 5.6992-5.0469 7.9961c-10.562 16.73-16.68 38.902-16.68 63.242 0 24.34 6.1172 46.512 16.68 63.242l5.0469 7.9961 15.988-10.094-5.0469-7.9961c-8.2422-13.059-13.758-32.035-13.758-53.148 0-21.113 5.5156-40.09 13.758-53.148l5.0469-7.9961zm188.53 0-15.988 10.094 5.0469 7.9961c8.2422 13.059 13.758 32.035 13.758 53.148 0 21.113-5.5156 40.09-13.758 53.148l-5.0469 7.9961 15.988 10.094 5.0469-7.9961c10.562-16.73 16.68-38.902 16.68-63.242 0-24.34-6.1172-46.516-16.68-63.242zm-139.45 2.0273-17.133 8.0039 4.0039 8.5664c4.4219 9.4648 6.9219 19.527 9.4297 30.266l2.1523 9.207 18.414-4.3047-2.1523-9.207c-2.5352-10.852-5.2891-22.355-10.715-33.969l-4.0039-8.5664zm88.926 1.25-1.7695 9.2891c-7.2305 37.906-26.523 67.223-68.273 86.812l-8.5586 4.0156 8.0312 17.121 8.5625-4.0156c46.516-21.824 70.703-57.875 78.812-100.39l1.7695-9.2891-18.574-3.543z" fill-rule="evenodd"/>
</svg>
