<svg width="35" height="39" viewBox="0 0 35 39" fill="none" xmlns="http://www.w3.org/2000/svg">
<path d="M27.0058 8.91956C29.3059 10.3196 32.2056 9.61943 33.6057 7.31964C35.0058 5.01948 34.3056 2.11981 32.0058 0.719726C29.7056 -0.680357 26.8059 0.01986 25.4059 2.31964C24.1057 4.51948 24.8056 7.51948 27.0058 8.91956Z" fill="black"/>
<path d="M32.8056 16.9197L29.6058 16.5196L28.2057 12.5196C27.9056 11.7195 27.4056 10.9197 26.7057 10.3198L24.5059 8.31976C24.1058 7.9197 23.6058 7.6199 23.1058 7.41968L17.5059 4.91968C16.906 4.61955 16.3061 4.61955 15.7057 4.91968L10.9056 7.01959C9.80564 7.51959 9.20573 8.81976 9.70573 10.0196C10.2057 11.1195 11.5059 11.7194 12.7057 11.2194L16.6058 9.5196L18.6058 10.4197C17.1058 12.0196 15.1058 14.4197 13.5059 16.5196C12.6058 17.6195 11.906 19.4197 12.406 21.7194L9.30606 24.6195L2.70614 24.2194C1.30606 24.1195 0.106226 25.2194 0.00630891 26.6195C-0.0936244 28.0196 1.00631 29.2194 2.40639 29.3194L10.1062 29.8194H10.4064C11.0063 29.8194 11.6062 29.5192 12.0063 29.1195L16.0063 25.4197L20.2061 29.0196L20.1062 35.7194C20.1062 37.1195 21.2061 38.3193 22.6062 38.3193H22.7061C24.0063 38.2194 25.1062 37.1195 25.1062 35.8193L25.2061 27.9192C25.2061 27.1191 24.906 26.4192 24.306 25.9192L19.6062 21.9192L24.806 16.8193L25.806 19.5192C26.1062 20.3193 26.806 20.9192 27.7061 21.0192L32.406 21.5192H32.7061C33.806 21.5192 34.7061 20.6191 34.806 19.5192C34.9059 18.1194 34.0058 17.0196 32.8056 16.9197Z" fill="black"/>
</svg>
