<?xml version="1.0" encoding="UTF-8"?>
<svg width="1200pt" height="1200pt" version="1.1" viewBox="0 0 1200 1200" xmlns="http://www.w3.org/2000/svg">
 <path d="m364.18 562.13-65.766-65.766c-13.031-13.031-12.234-34.688 2.3906-46.641 12.75-10.406 31.688-8.2031 43.359 3.4688l63.234 63.234c11.625 11.625 13.875 30.609 3.4688 43.359-12 14.578-33.656 15.422-46.688 2.3438zm-17.109-158.63c-10.406 12.75-8.2031 31.688 3.4688 43.359l69 69c11.625 11.625 30.609 13.875 43.359 3.4688 14.625-12 15.469-33.609 2.3906-46.641l-71.578-71.578c-12.984-13.078-34.641-12.281-46.641 2.3906zm90.844 2.7188c-5.0625 5.0625-12 7.5469-19.031 7.2656l57.328 57.328c11.625 11.625 30.609 13.875 43.359 3.4688 14.625-12 15.469-33.609 2.3906-46.641l-57.469-57.469-23.391 32.109c-0.5625 0.98438-1.7812 2.5312-3.1875 3.9375zm59.156-164.53s-0.84375-0.60938-2.1562-1.6875c-0.23438-0.23438-0.60938-0.46875-0.9375-0.70312-16.219-13.078-94.078-73.781-129.37-66-3.9375 0.9375-8.0625-0.14062-11.062-3l-110.3-110.3h-183.24v147.14l131.39 131.39c1.4531 1.4531 2.3906 3.2344 3 5.1562l8.5312 31.547c6.375 23.156 18.609 44.297 35.531 61.219l42.234 42.234c-1.3125-11.859 2.3906-24.141 11.391-33.141 11.156-11.156 27.234-14.297 41.156-9.7031-4.5469-13.922-1.4531-30 9.7031-41.156 10.453-10.547 25.453-13.781 38.859-10.219-0.9375-2.0625-1.7812-4.2188-2.5312-6.4688l-0.70312-2.625c-2.7656-12-0.9375-24.375 5.1562-34.781l4.6875-7.9219c-8.1562 0.84375-18.234 0.46875-27.141-0.60938-20.625-2.625-57-12.375-73.453-47.531l5.625-5.625 1.3125-0.60938c10.547 24.703 32.25 35.766 48.562 40.781 22.078 6.7031 43.688 5.3906 51.234 3.375 0 0 21-35.297 21.141-35.297l7.5469 4.7812-31.781 53.156c-5.1562 8.7656-6.2344 18.703-3.9375 28.312 1.7812 7.3125 5.625 14.297 11.297 19.922 2.625 2.625 5.625 4.9219 9 6.9375l2.5312 1.5469c8.3906 4.9219 18.938 2.7656 23.531-4.9219l24.234-33.234 5.3906-7.4531s42.469-57.609 44.156-61.219c0.46875-0.9375 0.84375-2.0625 1.2188-3 1.5469-4.5469 2.7656-9.4688 3.1406-14.297 0.84375-13.078-4.7812-26.297-14.953-36zm25.453 173.76c13.031 13.031 34.688 12.234 46.641-2.3906 10.406-12.75 8.2031-31.688-3.4688-43.359l-58.406-58.406-37.453 51.469zm409.64-31.219-57.656 57.656c-10.781 10.781-10.781 28.219 0 39s28.219 10.781 39 0l57.656-57.656c10.781-10.781 10.781-28.219 0-39s-28.266-10.781-39 0zm-107.34 57.188c10.781 10.781 28.219 10.781 39 0l62.766-62.766c10.781-10.781 10.781-28.219 0-39-3.8906-3.8906-8.6719-6.3281-13.641-7.4062-0.1875 1.875-0.42187 3.7031-0.89062 5.5781-1.875 7.7344-5.9062 14.812-11.672 20.578-2.7656 2.7656-5.8594 5.1562-9.0938 7.0312l-2.3438 1.4531c-8.625 5.1094-19.312 4.0312-26.156-2.4375l-37.969 37.969c-10.781 10.734-10.781 28.219 0 39zm-30.422-171.47-167.95 100.31c-13.078 7.8281-17.344 24.75-9.5156 37.828 7.8281 13.078 24.75 17.344 37.828 9.5156l135.37-80.859-80.859 135.37c-7.8281 13.078-3.5625 30 9.5156 37.828 13.078 7.8281 30 3.5625 37.828-9.5156l69.234-115.92 3 3 28.312-28.312c-9.1875-13.031-20.203-28.594-31.031-43.969-11.766-16.734-23.25-33.094-31.734-45.281zm168.37-172.64-39.938 39.844c-2.625 2.625-6.375 3.4688-9.9375 2.7656-31.078-6.4688-99 46.453-113.16 57.844-0.375 0.23438-0.60938 0.46875-0.84375 0.60938-1.2188 0.9375-1.7812 1.5469-1.7812 1.5469-9 8.3906-13.922 19.922-13.078 31.688 0.23438 4.0781 1.3125 8.5312 2.7656 12.469 0.23438 0.84375 0.46875 1.7812 0.9375 2.625 1.5469 3.1406 77.297 110.16 77.297 110.16 4.0781 6.7031 13.219 8.625 20.625 4.3125l2.3438-1.3125c2.7656-1.7812 5.3906-3.8438 7.7812-6.1406 4.9219-4.9219 8.2969-11.062 9.8438-17.531 1.7812-7.2188 0.60938-14.297-2.3906-21.141-2.3906-5.2969-13.078-23.766-15.469-27.703-5.2969-8.7656-10.547-17.531-15.844-26.391-3.2344-5.3906-10.219-17.062-10.219-17.062l6.6094-4.2188c0.14062 0.14063 18.469 30.938 18.469 30.938 6.7031 1.7812 25.688 3 45-3 14.297-4.4531 33.375-14.156 42.469-35.766l1.2188 0.46875 4.9219 5.0625c-14.531 30.844-46.312 39.234-64.453 41.625-7.7812 0.84375-16.547 1.3125-23.859 0.46875 0 0 2.5312 3.8438 5.625 9.7031 5.5312 9.6094 13.219 24.703 15.234 35.062 6.9375 0.9375 13.781 4.3125 19.219 9.7031 9.7031 9.7031 12.469 23.859 8.5312 36.141 12.141-3.9375 26.297-1.3125 36 8.3906 8.0625 8.0625 11.156 18.703 10.078 29.156l36.844-36.844c14.859-15 25.688-33.469 31.312-53.859l7.5469-27.703c0.375-1.6875 1.3125-3.2344 2.625-4.5469l74.906-74.812v-149.86h-139.92c-20.531 20.391-37.312 37.219-37.312 37.312zm-243.84 534.47c-14.062 0-25.5 11.391-25.5 25.5v144.37l-8.4844-0.046875v-195.32c0-14.062-11.391-25.5-25.5-25.5-14.062 0-25.5 11.391-25.5 25.5v195.32h-8.4844l0.046874-229.31c0-14.062-11.391-25.5-25.5-25.5-14.062 0-25.5 11.391-25.5 25.5v229.31h-8.4844v-195.32c0-14.062-11.391-25.5-25.5-25.5-14.062 0-25.5 11.391-25.5 25.5v195.32h-8.4844v-75.797c0-19.125-15.516-34.641-34.641-34.641h-2.9062c-7.4062 0-13.453 6-13.453 13.453v224.39c0.09375 37.875 22.734 70.406 55.172 85.078l0.09375 125.9h178.36l0.046875-125.86c32.531-14.719 55.219-47.344 55.219-85.359v-127.13l-0.046875-144.42c0-14.062-11.391-25.453-25.453-25.453z"/>
</svg>
