<?xml version="1.0" encoding="UTF-8"?>
<svg width="1200pt" height="1200pt" version="1.1" viewBox="0 0 1200 1200" xmlns="http://www.w3.org/2000/svg">
 <path d="m493.18 665.63c63.328-47.484 150.32-47.484 213.66 0 7.9219 5.9531 9.5156 17.203 3.5625 25.172-5.9531 7.9688-17.25 9.5625-25.219 3.6094-50.484-37.875-119.86-37.875-170.34 0-7.9688 5.9531-19.266 4.3594-25.219-3.6094s-4.3594-19.219 3.5625-25.172z"/>
 <path d="m543 522.14c5.9062 0.60938 11.438 2.9062 16.031 6.7031l2.2031 1.9688 1.9688 2.1562c4.4062 5.3438 6.7969 12.094 6.7969 19.031l-0.046875 0.1875h0.046875c-0.046875 7.9688-3.2344 15.562-8.9062 21.141s-13.266 8.7188-21.234 8.6719-15.562-3.2344-21.188-8.8594c-5.5781-5.625-8.7188-13.266-8.6719-21.234l0.1875-2.9531c0.65625-6.8438 3.7031-13.312 8.625-18.234l2.2031-1.9688c5.3438-4.3594 12.094-6.75 19.031-6.75z"/>
 <path d="m663 522.14c5.9062 0.60938 11.438 2.9062 16.031 6.7031l2.2031 1.9688 1.9688 2.1562c4.4062 5.3438 6.7969 12.094 6.7969 19.031l-0.046875 0.1875h0.046875c-0.046875 7.9688-3.2344 15.562-8.9062 21.141s-13.266 8.7188-21.234 8.6719-15.562-3.2344-21.188-8.8594c-5.5781-5.625-8.7188-13.266-8.6719-21.234l0.1875-2.9531c0.65625-6.8438 3.7031-13.312 8.625-18.234l2.2031-1.9688c5.3438-4.3594 12.094-6.75 19.031-6.75z"/>
 <path d="m600 342c142.5 0 258 115.5 258 258s-115.5 258-258 258-258-115.5-258-258 115.5-258 258-258zm0 36c-122.63 0-222 99.375-222 222s99.375 222 222 222 222-99.375 222-222-99.375-222-222-222z" fill-rule="evenodd"/>
</svg>
