<?xml version="1.0" encoding="UTF-8"?>
<svg width="1200pt" height="1200pt" version="1.1" viewBox="0 0 1200 1200" xmlns="http://www.w3.org/2000/svg">
 <path d="m638.72 680.58c8.5312-5.1562 19.594-2.3438 24.703 6.1406 5.1562 8.5312 2.3438 19.594-6.1406 24.703-42.656 25.594-95.906 25.594-138.56 0-8.4844-5.1094-11.297-16.172-6.1406-24.703 5.1094-8.4844 16.172-11.25 24.703-6.1406 31.219 18.703 70.219 18.703 101.44 0z"/>
 <path d="m528 582c9.9375 0 18 8.0625 18 18v24c0 9.9375-8.0625 18-18 18s-18-8.0625-18-18v-24c0-9.9375 8.0625-18 18-18z"/>
 <path d="m648 582c9.9375 0 18 8.0625 18 18v24c0 9.9375-8.0625 18-18 18s-18-8.0625-18-18v-24c0-9.9375 8.0625-18 18-18z"/>
 <path d="m624 366c62.953 0 114 51.047 114 114 0 19.594-4.9688 38.016-13.688 54.094 47.719 2.25 85.688 41.625 85.688 89.906 0 13.125-2.8594 25.547-7.875 36.703 32.766 13.453 55.875 45.656 55.875 83.297 0 49.688-40.312 90-90 90h-336c-49.688 0-90-40.312-90-90 0-37.641 23.062-69.844 55.875-83.297-5.0625-11.156-7.875-23.578-7.875-36.703 0-43.781 31.219-80.203 72.609-88.312 4.7812-42.422 37.125-77.25 80.062-84.422l62.344-10.359c0.28125-0.046875 0.51562-0.1875 0.70312-0.375l0.28125-0.75v-55.781c0-9.9375 8.0625-18 18-18zm18 73.781-0.14062 3.375c-1.5 16.688-14.109 30.469-30.938 33.281l-62.297 10.406c-29.203 4.8281-50.625 30.094-50.625 59.672 0 0.5625 0.046875 1.2656 0.23438 2.1562 0.98438 5.25-0.42188 10.688-3.8438 14.812s-8.4844 6.5156-13.875 6.5156h-0.51562c-29.812 0-54 24.188-54 54 0 13.875 5.2969 26.531 13.969 36.141 4.6406 5.1094 5.9531 12.375 3.375 18.797-2.5781 6.375-8.5312 10.734-15.422 11.25-27.891 2.0625-49.922 25.359-49.922 53.812 0 29.812 24.188 54 54 54h336l5.5312-0.28125c27.234-2.7656 48.469-25.781 48.469-53.719 0-28.453-22.031-51.797-49.969-53.812-6.8438-0.51562-12.844-4.875-15.422-11.25-2.5312-6.4219-1.2188-13.688 3.375-18.797 8.7188-9.6562 14.016-22.266 14.016-36.141 0-29.812-24.188-54-54-54h-32.531c-7.5 0-14.156-4.6406-16.828-11.625-2.625-6.9844-0.70312-14.906 4.9219-19.875 16.219-14.344 26.438-35.203 26.438-58.5 0-36.891-25.594-67.781-60-75.891z" fill-rule="evenodd"/>
</svg>
