<?xml version="1.0" encoding="UTF-8"?>
<svg width="1200pt" height="1200pt" version="1.1" viewBox="0 0 1200 1200" xmlns="http://www.w3.org/2000/svg">
 <path d="m730.78 587.76c6.75-7.2656 18.141-7.7344 25.453-0.98438 7.2656 6.75 7.7344 18.141 0.98438 25.453l-2.9062 3.1406c-83.156 90.094-225.47 90.094-308.63 0l-2.9062-3.1406c-6.75-7.3125-6.2812-18.703 0.98437-25.453 7.3125-6.75 18.703-6.2812 25.453 0.98438l2.9062 3.1875c68.906 74.625 186.84 74.625 255.74 0z"/>
 <path d="m543 498.14c5.9062 0.60938 11.438 2.9062 16.031 6.7031l2.2031 1.9688 1.9688 2.1562c4.4062 5.3438 6.7969 12.094 6.7969 19.031l-0.046875 0.1875h0.046875c-0.046875 7.9688-3.2344 15.562-8.9062 21.141s-13.266 8.7188-21.234 8.6719-15.562-3.2344-21.188-8.8594c-5.5781-5.625-8.7188-13.266-8.6719-21.234l0.1875-2.9531c0.65625-6.8438 3.7031-13.312 8.625-18.234l2.2031-1.9688c5.3438-4.3594 12.094-6.75 19.031-6.75z"/>
 <path d="m663 498.14c5.9062 0.60938 11.438 2.9062 16.031 6.7031l2.2031 1.9688 1.9688 2.1562c4.4062 5.3438 6.7969 12.094 6.7969 19.031l-0.046875 0.1875h0.046875c-0.046875 7.9688-3.2344 15.562-8.9062 21.141s-13.266 8.7188-21.234 8.6719-15.562-3.2344-21.188-8.8594c-5.5781-5.625-8.7188-13.266-8.6719-21.234l0.1875-2.9531c0.65625-6.8438 3.7031-13.312 8.625-18.234l2.2031-1.9688c5.3438-4.3594 12.094-6.75 19.031-6.75z"/>
 <path d="m600 342c142.5 0 258 115.5 258 258s-115.5 258-258 258-258-115.5-258-258 115.5-258 258-258zm0 36c-122.63 0-222 99.375-222 222s99.375 222 222 222 222-99.375 222-222-99.375-222-222-222z" fill-rule="evenodd"/>
</svg>
