<?xml version="1.0" encoding="UTF-8"?>
<svg width="1200pt" height="1200pt" version="1.1" viewBox="0 0 1200 1200" xmlns="http://www.w3.org/2000/svg">
 <path d="m600 630c6.7969 0 13.031 3.8438 16.125 9.9844l24 48c4.4062 8.8594 0.79688 19.688-8.1094 24.141-8.8594 4.4062-19.688 0.79688-24.141-8.1094l-7.875-15.797-7.875 15.797c-4.4531 8.9062-15.281 12.516-24.141 8.1094-8.9062-4.4531-12.516-15.281-8.1094-24.141l24-48c3.0938-6.1406 9.3281-9.9844 16.125-9.9844z"/>
 <path d="m504 486c36.469 0 66 29.531 66 66v24c0 36.469-29.531 66-66 66s-66-29.531-66-66v-24c0-36.469 29.531-66 66-66zm0 36c-16.547 0-30 13.453-30 30v24c0 16.547 13.453 30 30 30s30-13.453 30-30v-24c0-16.547-13.453-30-30-30z" fill-rule="evenodd"/>
 <path d="m696 486c36.469 0 66 29.531 66 66v24c0 36.469-29.531 66-66 66s-66-29.531-66-66v-24c0-36.469 29.531-66 66-66zm0 36c-16.547 0-30 13.453-30 30v24c0 16.547 13.453 30 30 30s30-13.453 30-30v-24c0-16.547-13.453-30-30-30z" fill-rule="evenodd"/>
 <path d="m648 342c115.97 0 210 94.031 210 210v96c0 56.812-41.578 103.92-96 112.59v31.406c0 36.469-29.531 66-66 66h-192c-36.469 0-66-29.531-66-66v-31.406c-54.422-8.6719-96-55.781-96-112.59v-96c0-115.97 94.031-210 210-210zm-96 36c-96.094 0-174 77.906-174 174v96c0 41.625 32.625 75.656 73.734 77.859l4.6875 0.14062c9.75 0.23438 17.578 8.2031 17.578 18v48l0.1875 3.0938c1.5 15.094 14.297 26.906 29.812 26.906h30v-54c0-9.9375 8.0625-18 18-18s18 8.0625 18 18v54h60v-54c0-9.9375 8.0625-18 18-18s18 8.0625 18 18v54h30l3.0938-0.1875c14.109-1.4062 25.312-12.609 26.719-26.719l0.1875-3.0938v-48c0-9.7969 7.8281-17.766 17.578-18l4.6875-0.14062c41.062-2.2031 73.734-36.234 73.734-77.859v-96c0-96.094-77.906-174-174-174z" fill-rule="evenodd"/>
</svg>
