<?xml version="1.0" encoding="UTF-8"?>
<svg width="1200pt" height="1200pt" version="1.1" viewBox="0 0 1200 1200" xmlns="http://www.w3.org/2000/svg">
 <path d="m759.6 504c121.2-60 205.2-183.6 205.2-328.8v-68.398c7.1992-3.6016 16.801-10.801 16.801-27.602v-28.801s0-30-30-30h-702s-30 0-30 30v28.801s0 20.398 16.801 27.602v68.398c0 144 84 268.8 205.2 327.6 43.199 24 70.801 57.602 70.801 96 0 37.199-27.602 72-70.801 96-121.2 58.801-205.2 183.6-205.2 327.6v69.602c-8.3984 3.6016-16.801 10.801-16.801 27.602v28.801s0 30 30 30h702s30 0 30-30v-28.801s0-20.398-16.801-27.602v-68.398c0-144-84-268.8-205.2-327.6-43.199-24-70.801-57.602-70.801-96-1.1992-37.203 26.398-72.004 70.801-96.004zm-112.8 96c0 44.398 25.199 87.602 70.801 118.8l22.801 14.398c112.8 54 182.4 165.6 182.4 290.4v30l-645.6 0.003906v-30c0-124.8 69.602-236.4 182.4-290.4l22.801-14.398c45.602-31.199 70.801-74.398 70.801-118.8 0-44.398-25.199-87.602-70.801-118.8l-22.801-14.398c-112.8-55.203-182.4-166.8-182.4-291.61v-30h645.6v30c0 124.8-69.602 236.4-182.4 290.4l-22.801 14.398c-45.602 32.402-70.801 75.605-70.801 120z"/>
 <path d="m802.8 1027.2s-46.801-38.398-74.398-51.602l-2.3984-2.3984-22.801-14.398c-26.398-18-46.801-40.801-61.199-63.602v-1.1992c-34.801-58.801-67.199-16.801-76.801-1.1992 0 1.1992-1.1992 1.1992-1.1992 1.1992 0 1.1992-1.1992 1.1992-1.1992 2.3984-14.398 22.801-34.801 44.398-60 61.199l-22.801 14.398-2.3984 2.3984c-27.602 13.199-74.398 51.602-74.398 51.602l399.59 0.003906z"/>
 <path d="m600 688.8c-8.3984 0-14.398 6-14.398 14.398 0 8.3984 6 14.398 14.398 14.398s14.398-6 14.398-14.398c0-8.3984-6-14.398-14.398-14.398"/>
 <path d="m606 640.8c-8.3984 0-14.398 6-14.398 14.398 0 8.3984 6 14.398 14.398 14.398s14.398-6 14.398-14.398c0-8.3984-6-14.398-14.398-14.398"/>
 <path d="m580.8 604.8c-8.3984 0-14.398 6-14.398 14.398 0 8.3984 6 14.398 14.398 14.398 8.3984 0 14.398-6 14.398-14.398 0-8.3984-6-14.398-14.398-14.398"/>
 <path d="m622.8 582c-8.3984 0-14.398 6-14.398 14.398 0 8.3984 6 14.398 14.398 14.398 8.3984 0 14.398-6 14.398-14.398 0-8.3984-6-14.398-14.398-14.398"/>
 <path d="m310.8 229.2c14.398 93.602 74.398 174 160.8 217.2l2.3984 2.3984 22.801 14.398c26.398 18 46.801 40.801 61.199 63.602v1.1992c34.801 58.801 67.199 16.801 76.801 1.1992 0-1.1992 1.1992-1.1992 1.1992-1.1992 0-1.1992 1.1992-1.1992 1.1992-2.3984 14.398-22.801 34.801-44.398 60-61.199l22.801-14.398 2.3984-2.3984c87.602-42 146.4-123.6 160.8-217.2l-572.4-0.003906z"/>
</svg>
