<svg preserveAspectRatio="none" width="100%" height="100%" overflow="visible" style="display: block;" viewBox="0 0 37.9966 39.1033" fill="none" xmlns="http://www.w3.org/2000/svg">
<path id="Rock" d="M20.7497 38.351L15.391 32.9922C14.3292 31.9304 14.3942 30.1657 15.5858 29.1918C16.6247 28.3439 18.1678 28.5234 19.1188 29.4744L24.2712 34.6269C25.2184 35.5741 25.4017 37.121 24.5538 38.1599C23.576 39.3477 21.8116 39.4166 20.7497 38.351ZM19.3557 25.4254C18.5078 26.4643 18.6873 28.0074 19.6383 28.9584L25.2605 34.5807C26.2078 35.5279 27.7546 35.7113 28.7935 34.8634C29.9852 33.8856 30.054 32.1248 28.9883 31.0629L23.156 25.2306C22.098 24.1649 20.3334 24.2299 19.3557 25.4254ZM26.7578 25.6469C26.3453 26.0594 25.78 26.2619 25.2071 26.239L29.8783 30.9102C30.8255 31.8574 32.3724 32.0408 33.4113 31.1928C34.6029 30.215 34.6717 28.4543 33.6061 27.3924L28.9234 22.7097L27.0174 25.326C26.9716 25.4062 26.8724 25.5323 26.7578 25.6469ZM31.5779 12.2406C31.5779 12.2406 31.5092 12.191 31.4022 12.1031C31.3831 12.084 31.3526 12.0649 31.3258 12.0458C30.0043 10.9802 23.6602 6.03396 20.7846 6.66797C20.4637 6.74436 20.1276 6.65651 19.8832 6.42352L13.46 0L4.38838 9.07164L0 13.46L6.67095 20.1313C6.78935 20.2497 6.86574 20.3949 6.9154 20.5515L7.61053 23.122C8.12998 25.0088 9.12683 26.7314 10.5057 28.1103L13.947 31.5516C13.84 30.5853 14.1417 29.5845 14.8751 28.8512C15.7841 27.9422 17.0942 27.6862 18.2286 28.0606C17.8581 26.9262 18.1102 25.6161 19.0192 24.7071C19.8709 23.8477 21.0932 23.5842 22.1855 23.8744C22.1091 23.7063 22.0404 23.5306 21.9792 23.3473L21.922 23.1334C21.6966 22.1556 21.8456 21.1473 22.3421 20.2994L22.724 19.6539C22.0595 19.7226 21.2383 19.6921 20.5125 19.6042C18.832 19.3903 15.8681 18.5959 14.5275 15.7313L14.9858 15.2729L15.0927 15.2233C15.9521 17.2361 17.7205 18.1376 19.0497 18.5462C20.8486 19.0924 22.6094 18.9855 23.2243 18.8212C23.2243 18.8212 24.9354 15.9451 24.9469 15.9451L25.5618 16.3347L22.9723 20.666C22.5521 21.3802 22.4643 22.19 22.6514 22.9729C22.7966 23.5688 23.1098 24.1379 23.5719 24.5962C23.7858 24.8101 24.0303 24.9973 24.3053 25.1615L24.5115 25.2876C25.1952 25.6886 26.0546 25.5129 26.4289 24.8865L28.4035 22.1785L28.8427 21.5712C28.8427 21.5712 32.3032 16.8771 32.4406 16.5829C32.4788 16.5066 32.5094 16.4149 32.5399 16.3385C32.666 15.968 32.7653 15.567 32.7958 15.1735C32.8646 14.1079 32.4067 13.0312 31.5779 12.2406ZM33.6519 26.399C34.7137 27.4608 36.4783 27.3959 37.4523 26.2042C38.3002 25.1653 38.1207 23.6222 37.1696 22.6712L32.4106 17.9122L29.3589 22.106L33.6519 26.399Z" fill="var(--fill-0, #C8F55A)"/>
</svg>
