<svg preserveAspectRatio="none" width="100%" height="100%" overflow="visible" style="display: block;" viewBox="0 0 22.9815 43" fill="none" xmlns="http://www.w3.org/2000/svg">
<path id="Scissors" d="M4.49413 19.6052L4.49409 12.9613C4.49409 11.719 3.48936 10.7143 2.24704 10.7142C1.00471 10.7142 -6.44844e-06 11.719 0 12.9613L3.64149e-05 19.6052C4.28634e-05 20.8475 1.00476 21.8522 2.24709 21.8522C3.48942 21.8522 4.49684 20.8448 4.49413 19.6052ZM7.38367 10.1257C6.14134 10.1257 5.13662 11.1304 5.13663 12.3727L5.13667 19.6054C5.13668 20.8478 6.1414 21.8525 7.38373 21.8525C7.83205 21.8525 8.24798 21.7174 8.59639 21.4933C8.49917 21.3744 8.40734 21.2556 8.32632 21.1205C7.98872 20.5669 7.81319 19.9268 7.81317 19.2624C7.81317 18.9437 7.85368 18.6277 7.932 18.3333L7.98332 18.1146C8.18588 17.3233 8.86374 16.7696 9.63077 16.748L9.63075 12.3727C9.63345 11.1331 8.626 10.1257 7.38367 10.1257ZM19.016 18.2524L22.9131 2.79623C23.2156 1.59169 22.4864 0.370912 21.2819 0.068442C20.0773 -0.234045 18.8565 0.495136 18.5541 1.69969L15.4134 14.158L12.2726 1.69966C11.9701 0.495116 10.7494 -0.234106 9.54484 0.0683803C8.3403 0.370855 7.61109 1.59161 7.91359 2.79615L10.6035 13.4641L10.2578 13.4641L10.2578 16.7266C11.538 16.948 13.0694 17.2101 14.5791 17.472C16.2212 17.7583 17.825 18.0391 19.016 18.2524ZM19.2622 37.9002L19.2676 33.3035C19.2675 33.001 19.435 32.7363 19.6808 32.5716C21.8441 31.1537 22.7083 24.1911 22.8678 22.7189C22.8759 22.6838 22.8759 22.6568 22.8813 22.6352C22.8975 22.511 22.8948 22.4435 22.8948 22.4435C22.9299 21.4415 22.5491 20.4935 21.8226 19.8642C21.5741 19.6427 21.2554 19.4483 20.9448 19.3051C20.8827 19.27 20.8152 19.2295 20.7396 19.2079C20.4695 19.1161 9.93891 17.3144 9.93891 17.3144C9.31773 17.1631 8.68034 17.579 8.5021 18.2542L8.44268 18.4649C8.38597 18.7269 8.35356 18.9969 8.34816 19.267C8.34816 19.8342 8.50748 20.3824 8.79108 20.8443C9.10438 21.3628 9.57972 21.7031 10.1469 21.9246C10.5898 22.0921 12.2697 22.5404 12.6343 22.6295C13.4446 22.8294 14.2521 23.0319 15.0678 23.2372C15.5647 23.3614 16.6396 23.6315 16.6396 23.6315L16.5019 24.2554C16.4857 24.2554 13.6552 23.5369 13.6552 23.5369C13.1664 23.8205 12.0023 24.8441 11.2353 26.3025C10.6682 27.3828 10.128 29.0411 10.8491 30.8101L10.7519 30.8533L10.1766 30.8452C9.23673 28.2309 10.5844 25.9164 11.4919 24.7334C11.8916 24.2365 12.3696 23.7044 12.8395 23.3317C12.8395 23.3317 12.4722 23.2561 11.9564 23.0968C11.084 22.8618 9.77144 22.4351 9.05849 21.9543C8.60477 22.3 8.01601 22.4999 7.39211 22.5026C6.27399 22.5026 5.29901 21.8463 4.81824 20.9118C4.34559 21.8382 3.37873 22.5025 2.26061 22.5025C1.33155 22.5025 0.540236 22.0677 7.68759e-05 21.4033L0.00010385 25.649C0.00823667 27.3693 0.448425 29.0574 1.2992 30.5562L2.46054 32.5872C2.53616 32.7061 2.57127 32.8492 2.57127 33.0004L2.5659 43H11.2004H19.262C19.2701 40.6422 19.2675 37.9056 19.2622 37.9002Z" fill="var(--fill-0, #C8F55A)"/>
</svg>
