<svg width="27" height="37" viewBox="0 0 27 37" fill="none" xmlns="http://www.w3.org/2000/svg">
<path d="M26.1206 3.9044L26.1206 11.4828C26.1205 12.9844 24.8268 14.1863 23.2955 14.0324C21.9613 13.8974 20.9971 12.6793 20.9972 11.3344L20.9972 4.04769C20.9972 2.70811 21.9614 1.48467 23.2956 1.34963C24.8269 1.20108 26.1233 2.40002 26.1206 3.9044ZM17.9666 14.0299C19.3007 13.8949 20.265 12.6768 20.2649 11.3319L20.265 3.38076C20.265 2.04118 19.3008 0.817749 17.9667 0.682714C16.4326 0.531478 15.1389 1.72791 15.1416 3.2323L15.1416 11.4805C15.1361 12.9821 16.4298 14.1839 17.9666 14.0299ZM12.8891 8.63919C13.4725 8.63918 14.0154 8.89575 14.4042 9.31706L14.4043 2.71097C14.4043 1.37139 13.4401 0.147964 12.106 0.0129295C10.5719 -0.138306 9.27825 1.05811 9.28091 2.5625L9.28088 9.18483L12.4786 8.68252C12.5677 8.65821 12.7271 8.63919 12.8891 8.63919ZM0.00107991 14.7105C0.00107991 14.7105 0.0145857 14.7943 0.0280863 14.932C0.0280861 14.959 0.0361894 14.9941 0.0415908 15.0265C0.222556 16.7145 1.21099 24.698 3.6927 26.2831C3.97358 26.4559 4.14913 26.7557 4.1572 27.0933L4.15695 36.1772L16.9862 36.1772L23.1923 36.1772L23.1925 26.7429C23.1926 26.5754 23.2412 26.4188 23.3168 26.2729L24.6429 23.9637C25.6098 22.2623 26.123 20.3393 26.123 18.3893L26.123 13.5226C25.5153 14.2815 24.5943 14.7758 23.5572 14.7758C22.2717 14.7758 21.1643 14.0304 20.6269 12.9636C20.0867 14.0277 18.9821 14.7758 17.6966 14.7758C16.4866 14.7812 15.436 14.1033 14.8689 13.1257C14.804 13.2985 14.7284 13.4714 14.642 13.6442L14.5313 13.836C13.9992 14.6867 13.1809 15.2944 12.2302 15.5429L11.5037 15.7292C12.0222 16.1505 12.5813 16.7528 13.0323 17.3281C14.0694 18.6677 15.6035 21.3252 14.5258 24.2988L13.8777 24.2988L13.7669 24.2583C14.5826 22.2273 13.9695 20.3394 13.3186 19.1106C12.4328 17.4524 11.1121 16.2829 10.5612 15.9643C10.5612 15.9643 7.31754 16.788 7.30942 16.7799L7.15007 16.0696L12.0439 14.838C12.846 14.63 13.4807 14.1196 13.902 13.4336C14.2207 12.9097 14.4016 12.2858 14.3989 11.6349C14.3989 11.3324 14.3584 11.0272 14.2801 10.7166L14.2234 10.4817C14.0235 9.71464 13.2916 9.23118 12.584 9.40948L9.27292 9.92804L8.5329 10.0469C8.5329 10.0469 2.76674 10.9192 2.46155 11.03C2.38053 11.057 2.2941 11.1002 2.21848 11.1327C1.86737 11.3055 1.51358 11.5189 1.21378 11.7754C0.411657 12.4803 -0.0259248 13.5654 0.00107991 14.7105ZM8.54608 3.23253C8.54608 1.73092 7.25237 0.52905 5.72106 0.682986C4.38689 0.818046 3.42266 2.03612 3.42271 3.38105L3.42267 10.1114L8.54606 9.30378L8.54608 3.23253Z" fill="#C8F55A"/>
</svg>
