<svg preserveAspectRatio="none" width="100%" height="100%" overflow="visible" style="display: block;" viewBox="0 0 23.5394 48" fill="none" xmlns="http://www.w3.org/2000/svg">
<path id="Paper" d="M21.4615 6.92494C20.3157 6.92494 19.3838 7.85311 19.3838 9.00275V20.7664L18.6924 20.7626V4.8474C18.6924 3.70159 17.7643 2.76959 16.6147 2.76959C15.4689 2.76959 14.5369 3.69776 14.5369 4.8474V20.7626H13.8455L13.8494 2.0778C13.8494 0.931997 12.9212 0 11.7716 0C10.6258 0 9.6938 0.928167 9.6938 2.0778V20.7626H9.00248V4.8474C9.00248 3.70159 8.07432 2.76959 6.92469 2.76959C5.77889 2.76959 4.84691 3.69776 4.84691 4.8474V20.7626H4.15558V14.5864C4.15558 13.0281 2.89131 11.7638 1.33297 11.7638H1.09617C0.492702 11.7638 0 12.2527 0 12.86V31.1439C0.00763891 34.23 1.8524 36.8807 4.49551 38.0762L4.50315 48H19.0362L19.04 38.0795C21.6907 36.8801 23.5394 34.2218 23.5394 31.1242L23.5356 8.99762C23.5356 7.85182 22.6074 6.92365 21.4616 6.92365L21.4615 6.92494Z" fill="var(--fill-0, #C8F55A)"/>
</svg>
